<mxfile host="Electron" agent="Mozilla/5.0 (Windows NT 10.0; Win64; x64) AppleWebKit/537.36 (KHTML, like Gecko) draw.io/25.0.2 Chrome/128.0.6613.186 Electron/32.2.5 Safari/537.36" version="25.0.2">
  <diagram name="Trang-1" id="_Nwho6YEJMuwtQIJM811">
    <mxGraphModel dx="1104" dy="732" grid="1" gridSize="10" guides="1" tooltips="1" connect="1" arrows="1" fold="1" page="1" pageScale="1" pageWidth="827" pageHeight="1169" math="0" shadow="0">
      <root>
        <mxCell id="0" />
        <mxCell id="1" parent="0" />
        <mxCell id="qubWMoMRc4tjkrTYKmNu-3" value="" style="edgeStyle=orthogonalEdgeStyle;rounded=0;orthogonalLoop=1;jettySize=auto;html=1;" edge="1" parent="1" source="qubWMoMRc4tjkrTYKmNu-1" target="qubWMoMRc4tjkrTYKmNu-2">
          <mxGeometry relative="1" as="geometry" />
        </mxCell>
        <mxCell id="qubWMoMRc4tjkrTYKmNu-1" value="start" style="ellipse;whiteSpace=wrap;html=1;fillColor=none;" vertex="1" parent="1">
          <mxGeometry x="300" y="120" width="120" height="80" as="geometry" />
        </mxCell>
        <mxCell id="qubWMoMRc4tjkrTYKmNu-5" value="" style="edgeStyle=orthogonalEdgeStyle;rounded=0;orthogonalLoop=1;jettySize=auto;html=1;" edge="1" parent="1" source="qubWMoMRc4tjkrTYKmNu-2" target="qubWMoMRc4tjkrTYKmNu-4">
          <mxGeometry relative="1" as="geometry" />
        </mxCell>
        <mxCell id="qubWMoMRc4tjkrTYKmNu-7" value="" style="edgeStyle=orthogonalEdgeStyle;rounded=0;orthogonalLoop=1;jettySize=auto;html=1;" edge="1" parent="1" source="qubWMoMRc4tjkrTYKmNu-2" target="qubWMoMRc4tjkrTYKmNu-6">
          <mxGeometry relative="1" as="geometry" />
        </mxCell>
        <mxCell id="qubWMoMRc4tjkrTYKmNu-2" value="diem" style="shape=parallelogram;perimeter=parallelogramPerimeter;whiteSpace=wrap;html=1;fixedSize=1;fillColor=none;" vertex="1" parent="1">
          <mxGeometry x="300" y="290" width="120" height="60" as="geometry" />
        </mxCell>
        <mxCell id="qubWMoMRc4tjkrTYKmNu-9" value="" style="edgeStyle=orthogonalEdgeStyle;rounded=0;orthogonalLoop=1;jettySize=auto;html=1;" edge="1" parent="1" source="qubWMoMRc4tjkrTYKmNu-4" target="qubWMoMRc4tjkrTYKmNu-8">
          <mxGeometry relative="1" as="geometry" />
        </mxCell>
        <mxCell id="qubWMoMRc4tjkrTYKmNu-4" value="if diem&amp;gt;5" style="rhombus;whiteSpace=wrap;html=1;fillColor=none;" vertex="1" parent="1">
          <mxGeometry x="160" y="280" width="80" height="80" as="geometry" />
        </mxCell>
        <mxCell id="qubWMoMRc4tjkrTYKmNu-11" value="" style="edgeStyle=orthogonalEdgeStyle;rounded=0;orthogonalLoop=1;jettySize=auto;html=1;" edge="1" parent="1" source="qubWMoMRc4tjkrTYKmNu-6" target="qubWMoMRc4tjkrTYKmNu-10">
          <mxGeometry relative="1" as="geometry" />
        </mxCell>
        <mxCell id="qubWMoMRc4tjkrTYKmNu-6" value="if diem&amp;lt;5" style="rhombus;whiteSpace=wrap;html=1;fillColor=none;" vertex="1" parent="1">
          <mxGeometry x="480" y="280" width="80" height="80" as="geometry" />
        </mxCell>
        <mxCell id="qubWMoMRc4tjkrTYKmNu-13" value="" style="edgeStyle=orthogonalEdgeStyle;rounded=0;orthogonalLoop=1;jettySize=auto;html=1;" edge="1" parent="1" source="qubWMoMRc4tjkrTYKmNu-8" target="qubWMoMRc4tjkrTYKmNu-12">
          <mxGeometry relative="1" as="geometry" />
        </mxCell>
        <mxCell id="qubWMoMRc4tjkrTYKmNu-8" value="dat" style="shape=parallelogram;perimeter=parallelogramPerimeter;whiteSpace=wrap;html=1;fixedSize=1;fillColor=none;" vertex="1" parent="1">
          <mxGeometry x="140" y="450" width="120" height="60" as="geometry" />
        </mxCell>
        <mxCell id="qubWMoMRc4tjkrTYKmNu-15" value="" style="edgeStyle=orthogonalEdgeStyle;rounded=0;orthogonalLoop=1;jettySize=auto;html=1;entryX=0.5;entryY=0;entryDx=0;entryDy=0;" edge="1" parent="1" source="qubWMoMRc4tjkrTYKmNu-10" target="qubWMoMRc4tjkrTYKmNu-12">
          <mxGeometry relative="1" as="geometry">
            <mxPoint x="400" y="480" as="targetPoint" />
          </mxGeometry>
        </mxCell>
        <mxCell id="qubWMoMRc4tjkrTYKmNu-10" value="khong dat" style="shape=parallelogram;perimeter=parallelogramPerimeter;whiteSpace=wrap;html=1;fixedSize=1;fillColor=none;" vertex="1" parent="1">
          <mxGeometry x="460" y="450" width="120" height="60" as="geometry" />
        </mxCell>
        <mxCell id="qubWMoMRc4tjkrTYKmNu-12" value="end" style="ellipse;whiteSpace=wrap;html=1;fillColor=none;" vertex="1" parent="1">
          <mxGeometry x="300" y="590" width="120" height="80" as="geometry" />
        </mxCell>
      </root>
    </mxGraphModel>
  </diagram>
</mxfile>
